<mxfile host="app.diagrams.net" modified="2022-09-10T22:40:12.463Z" agent="5.0 (Windows NT 10.0; Win64; x64) AppleWebKit/537.36 (KHTML, like Gecko) Chrome/104.0.0.0 Safari/537.36" etag="QXaagH9D6myXxM-o4EJl" version="20.3.0" type="github">
  <diagram name="Page-1" id="edf60f1a-56cd-e834-aa8a-f176f3a09ee4">
    <mxGraphModel dx="1422" dy="762" grid="1" gridSize="10" guides="1" tooltips="1" connect="1" arrows="1" fold="1" page="1" pageScale="1" pageWidth="1100" pageHeight="850" background="none" math="0" shadow="0">
      <root>
        <mxCell id="0" />
        <mxCell id="1" parent="0" />
        <mxCell id="c-KlXCSQ2PtLdsQqz_uu-4" style="edgeStyle=orthogonalEdgeStyle;rounded=0;orthogonalLoop=1;jettySize=auto;html=1;exitX=0.5;exitY=1;exitDx=0;exitDy=0;exitPerimeter=0;" edge="1" parent="1" source="c-KlXCSQ2PtLdsQqz_uu-2" target="c-KlXCSQ2PtLdsQqz_uu-3">
          <mxGeometry relative="1" as="geometry" />
        </mxCell>
        <mxCell id="c-KlXCSQ2PtLdsQqz_uu-2" value="Start" style="strokeWidth=2;html=1;shape=mxgraph.flowchart.start_1;whiteSpace=wrap;" vertex="1" parent="1">
          <mxGeometry x="290" y="80" width="100" height="60" as="geometry" />
        </mxCell>
        <mxCell id="c-KlXCSQ2PtLdsQqz_uu-6" style="edgeStyle=orthogonalEdgeStyle;rounded=0;orthogonalLoop=1;jettySize=auto;html=1;exitX=0.5;exitY=1;exitDx=0;exitDy=0;" edge="1" parent="1" source="c-KlXCSQ2PtLdsQqz_uu-3" target="c-KlXCSQ2PtLdsQqz_uu-5">
          <mxGeometry relative="1" as="geometry" />
        </mxCell>
        <mxCell id="c-KlXCSQ2PtLdsQqz_uu-3" value="Ask user for game board size and difficulty" style="rounded=1;whiteSpace=wrap;html=1;absoluteArcSize=1;arcSize=14;strokeWidth=2;" vertex="1" parent="1">
          <mxGeometry x="250" y="180" width="180" height="40" as="geometry" />
        </mxCell>
        <mxCell id="c-KlXCSQ2PtLdsQqz_uu-9" style="edgeStyle=orthogonalEdgeStyle;rounded=0;orthogonalLoop=1;jettySize=auto;html=1;exitX=0.5;exitY=1;exitDx=0;exitDy=0;" edge="1" parent="1" source="c-KlXCSQ2PtLdsQqz_uu-5" target="c-KlXCSQ2PtLdsQqz_uu-8">
          <mxGeometry relative="1" as="geometry" />
        </mxCell>
        <mxCell id="c-KlXCSQ2PtLdsQqz_uu-5" value="Create board of user-specified size and place bombs randomly based on difficulty selected" style="rounded=1;whiteSpace=wrap;html=1;absoluteArcSize=1;arcSize=14;strokeWidth=2;" vertex="1" parent="1">
          <mxGeometry x="242.5" y="280" width="195" height="50" as="geometry" />
        </mxCell>
        <mxCell id="c-KlXCSQ2PtLdsQqz_uu-15" style="edgeStyle=orthogonalEdgeStyle;rounded=0;orthogonalLoop=1;jettySize=auto;html=1;exitX=0.5;exitY=1;exitDx=0;exitDy=0;exitPerimeter=0;" edge="1" parent="1" source="c-KlXCSQ2PtLdsQqz_uu-8" target="c-KlXCSQ2PtLdsQqz_uu-14">
          <mxGeometry relative="1" as="geometry" />
        </mxCell>
        <mxCell id="c-KlXCSQ2PtLdsQqz_uu-8" value="Display board" style="strokeWidth=2;html=1;shape=mxgraph.flowchart.display;whiteSpace=wrap;" vertex="1" parent="1">
          <mxGeometry x="290" y="380" width="100" height="60" as="geometry" />
        </mxCell>
        <mxCell id="c-KlXCSQ2PtLdsQqz_uu-19" style="edgeStyle=orthogonalEdgeStyle;rounded=0;orthogonalLoop=1;jettySize=auto;html=1;exitX=0.5;exitY=1;exitDx=0;exitDy=0;entryX=0.5;entryY=0;entryDx=0;entryDy=0;entryPerimeter=0;" edge="1" parent="1" source="c-KlXCSQ2PtLdsQqz_uu-14" target="c-KlXCSQ2PtLdsQqz_uu-16">
          <mxGeometry relative="1" as="geometry" />
        </mxCell>
        <mxCell id="c-KlXCSQ2PtLdsQqz_uu-14" value="Ask user to select a row and column" style="rounded=1;whiteSpace=wrap;html=1;absoluteArcSize=1;arcSize=14;strokeWidth=2;" vertex="1" parent="1">
          <mxGeometry x="215" y="480" width="250" height="50" as="geometry" />
        </mxCell>
        <mxCell id="c-KlXCSQ2PtLdsQqz_uu-21" style="edgeStyle=orthogonalEdgeStyle;rounded=0;orthogonalLoop=1;jettySize=auto;html=1;exitX=1;exitY=0.5;exitDx=0;exitDy=0;exitPerimeter=0;entryX=0.5;entryY=1;entryDx=0;entryDy=0;entryPerimeter=0;startArrow=none;" edge="1" parent="1" source="c-KlXCSQ2PtLdsQqz_uu-25" target="c-KlXCSQ2PtLdsQqz_uu-20">
          <mxGeometry relative="1" as="geometry" />
        </mxCell>
        <mxCell id="c-KlXCSQ2PtLdsQqz_uu-32" style="edgeStyle=orthogonalEdgeStyle;rounded=0;orthogonalLoop=1;jettySize=auto;html=1;exitX=0.5;exitY=1;exitDx=0;exitDy=0;exitPerimeter=0;" edge="1" parent="1" source="c-KlXCSQ2PtLdsQqz_uu-16" target="c-KlXCSQ2PtLdsQqz_uu-31">
          <mxGeometry relative="1" as="geometry" />
        </mxCell>
        <mxCell id="c-KlXCSQ2PtLdsQqz_uu-16" value="User hit bomb?" style="strokeWidth=2;html=1;shape=mxgraph.flowchart.decision;whiteSpace=wrap;" vertex="1" parent="1">
          <mxGeometry x="290" y="570" width="100" height="100" as="geometry" />
        </mxCell>
        <mxCell id="c-KlXCSQ2PtLdsQqz_uu-23" style="edgeStyle=orthogonalEdgeStyle;rounded=0;orthogonalLoop=1;jettySize=auto;html=1;exitX=0.5;exitY=0;exitDx=0;exitDy=0;exitPerimeter=0;entryX=1;entryY=0.5;entryDx=0;entryDy=0;entryPerimeter=0;startArrow=none;" edge="1" parent="1" source="c-KlXCSQ2PtLdsQqz_uu-24" target="c-KlXCSQ2PtLdsQqz_uu-8">
          <mxGeometry relative="1" as="geometry" />
        </mxCell>
        <mxCell id="c-KlXCSQ2PtLdsQqz_uu-30" style="edgeStyle=orthogonalEdgeStyle;rounded=0;orthogonalLoop=1;jettySize=auto;html=1;exitX=1;exitY=0.5;exitDx=0;exitDy=0;exitPerimeter=0;entryX=0;entryY=0.5;entryDx=0;entryDy=0;entryPerimeter=0;" edge="1" parent="1" source="c-KlXCSQ2PtLdsQqz_uu-20" target="c-KlXCSQ2PtLdsQqz_uu-29">
          <mxGeometry relative="1" as="geometry" />
        </mxCell>
        <mxCell id="c-KlXCSQ2PtLdsQqz_uu-20" value="Are there any more spaces without bombs?" style="strokeWidth=2;html=1;shape=mxgraph.flowchart.decision;whiteSpace=wrap;" vertex="1" parent="1">
          <mxGeometry x="530" y="460" width="100" height="100" as="geometry" />
        </mxCell>
        <mxCell id="c-KlXCSQ2PtLdsQqz_uu-25" value="No" style="text;html=1;align=center;verticalAlign=middle;resizable=0;points=[];autosize=1;strokeColor=none;fillColor=none;" vertex="1" parent="1">
          <mxGeometry x="380" y="605" width="40" height="30" as="geometry" />
        </mxCell>
        <mxCell id="c-KlXCSQ2PtLdsQqz_uu-26" value="" style="edgeStyle=orthogonalEdgeStyle;rounded=0;orthogonalLoop=1;jettySize=auto;html=1;exitX=1;exitY=0.5;exitDx=0;exitDy=0;exitPerimeter=0;entryX=0.5;entryY=1;entryDx=0;entryDy=0;entryPerimeter=0;endArrow=none;" edge="1" parent="1" source="c-KlXCSQ2PtLdsQqz_uu-16" target="c-KlXCSQ2PtLdsQqz_uu-25">
          <mxGeometry relative="1" as="geometry">
            <mxPoint x="390" y="620" as="sourcePoint" />
            <mxPoint x="580" y="560" as="targetPoint" />
          </mxGeometry>
        </mxCell>
        <mxCell id="c-KlXCSQ2PtLdsQqz_uu-24" value="Yes" style="text;html=1;align=center;verticalAlign=middle;resizable=0;points=[];autosize=1;strokeColor=none;fillColor=none;" vertex="1" parent="1">
          <mxGeometry x="560" y="440" width="40" height="30" as="geometry" />
        </mxCell>
        <mxCell id="c-KlXCSQ2PtLdsQqz_uu-27" value="" style="edgeStyle=orthogonalEdgeStyle;rounded=0;orthogonalLoop=1;jettySize=auto;html=1;exitX=0.5;exitY=0;exitDx=0;exitDy=0;exitPerimeter=0;entryX=1;entryY=0.5;entryDx=0;entryDy=0;entryPerimeter=0;endArrow=none;" edge="1" parent="1" source="c-KlXCSQ2PtLdsQqz_uu-20" target="c-KlXCSQ2PtLdsQqz_uu-24">
          <mxGeometry relative="1" as="geometry">
            <mxPoint x="580" y="460" as="sourcePoint" />
            <mxPoint x="390" y="410" as="targetPoint" />
          </mxGeometry>
        </mxCell>
        <mxCell id="c-KlXCSQ2PtLdsQqz_uu-29" value="You Win message" style="strokeWidth=2;html=1;shape=mxgraph.flowchart.display;whiteSpace=wrap;" vertex="1" parent="1">
          <mxGeometry x="730" y="480" width="100" height="60" as="geometry" />
        </mxCell>
        <mxCell id="c-KlXCSQ2PtLdsQqz_uu-31" value="You lose message" style="strokeWidth=2;html=1;shape=mxgraph.flowchart.display;whiteSpace=wrap;" vertex="1" parent="1">
          <mxGeometry x="290" y="720" width="100" height="60" as="geometry" />
        </mxCell>
      </root>
    </mxGraphModel>
  </diagram>
</mxfile>
